<svg width="2912" height="771" viewBox="0 0 2912 771" fill="none" xmlns="http://www.w3.org/2000/svg">
<path d="M129.56 567V203.364H385.242V282.909H228.282V345.409H369.617V424.955H228.282V567H129.56ZM411.552 567V203.364H667.234V282.909H510.274V345.409H651.609V424.955H510.274V567H411.552ZM929.695 323.392C928.156 317.118 925.73 311.614 922.415 306.879C919.101 302.026 914.958 297.942 909.986 294.628C905.133 291.195 899.451 288.65 892.941 286.993C886.549 285.217 879.506 284.33 871.812 284.33C855.24 284.33 841.094 288.295 829.376 296.226C817.775 304.157 808.897 315.58 802.742 330.494C796.705 345.409 793.687 363.402 793.687 384.472C793.687 405.778 796.587 424.008 802.387 439.159C808.187 454.311 816.828 465.911 828.31 473.96C839.792 482.009 854.056 486.034 871.101 486.034C886.135 486.034 898.623 483.844 908.566 479.464C918.627 475.085 926.144 468.87 931.116 460.821C936.087 452.772 938.573 443.302 938.573 432.412L955.618 434.188H872.522V363.875H1033.74V414.301C1033.74 447.445 1026.7 475.795 1012.61 499.351C998.646 522.788 979.352 540.781 954.731 553.328C930.228 565.757 902.115 571.972 870.391 571.972C834.998 571.972 803.926 564.455 777.174 549.422C750.422 534.389 729.529 512.964 714.496 485.146C699.582 457.329 692.124 424.244 692.124 385.892C692.124 355.826 696.681 329.192 705.796 305.991C715.029 282.791 727.813 263.2 744.148 247.22C760.484 231.122 779.364 218.989 800.789 210.821C822.214 202.535 845.178 198.392 869.681 198.392C891.225 198.392 911.229 201.47 929.695 207.625C948.279 213.662 964.674 222.303 978.878 233.548C993.201 244.675 1004.74 257.874 1013.5 273.143C1022.26 288.413 1027.59 305.163 1029.48 323.392H929.695Z" fill="black"/>
<path d="M1162 0V752.602" stroke="black" stroke-width="15"/>
<path d="M1500.81 288.328C1499.15 272.821 1492.17 260.748 1479.86 252.107C1467.66 243.465 1451.8 239.145 1432.27 239.145C1418.54 239.145 1406.76 241.216 1396.94 245.359C1387.11 249.502 1379.6 255.125 1374.39 262.227C1369.18 269.33 1366.52 277.438 1366.4 286.553C1366.4 294.128 1368.11 300.698 1371.55 306.261C1375.1 311.825 1379.89 316.56 1385.93 320.466C1391.97 324.254 1398.65 327.45 1405.99 330.054C1413.33 332.658 1420.73 334.848 1428.19 336.624L1462.28 345.146C1476.01 348.342 1489.21 352.663 1501.87 358.108C1514.66 363.553 1526.08 370.419 1536.14 378.705C1546.32 386.991 1554.37 396.993 1560.29 408.712C1566.21 420.43 1569.17 434.161 1569.17 449.905C1569.17 471.212 1563.72 489.973 1552.83 506.19C1541.94 522.289 1526.2 534.895 1505.6 544.01C1485.12 553.006 1460.32 557.504 1431.21 557.504C1402.91 557.504 1378.35 553.125 1357.52 544.365C1336.8 535.606 1320.59 522.821 1308.87 506.013C1297.27 489.204 1290.99 468.726 1290.05 444.578H1354.86C1355.8 457.244 1359.71 467.779 1366.57 476.183C1373.44 484.588 1382.38 490.861 1393.39 495.004C1404.51 499.147 1416.94 501.219 1430.67 501.219C1445 501.219 1457.54 499.088 1468.31 494.827C1479.2 490.447 1487.73 484.41 1493.88 476.716C1500.04 468.903 1503.17 459.789 1503.29 449.372C1503.17 439.902 1500.39 432.09 1494.95 425.935C1489.5 419.661 1481.87 414.453 1472.04 410.31C1462.34 406.048 1450.97 402.26 1437.95 398.946L1396.58 388.293C1366.63 380.598 1342.96 368.939 1325.56 353.314C1308.28 337.571 1299.64 316.678 1299.64 290.636C1299.64 269.211 1305.44 250.449 1317.04 234.351C1328.75 218.252 1344.68 205.764 1364.8 196.886C1384.92 187.89 1407.71 183.392 1433.16 183.392C1458.96 183.392 1481.57 187.89 1500.99 196.886C1520.52 205.764 1535.85 218.134 1546.97 233.996C1558.1 249.739 1563.84 267.85 1564.2 288.328H1500.81ZM1771.24 279.273V328.989H1614.46V279.273H1771.24ZM1653.16 213.932H1717.44V469.969C1717.44 478.61 1718.74 485.239 1721.35 489.855C1724.07 494.353 1727.62 497.431 1732 499.088C1736.38 500.745 1741.23 501.574 1746.56 501.574C1750.58 501.574 1754.25 501.278 1757.57 500.686C1761 500.094 1763.6 499.562 1765.38 499.088L1776.21 549.337C1772.78 550.52 1767.87 551.822 1761.47 553.243C1755.2 554.663 1747.51 555.492 1738.39 555.729C1722.29 556.202 1707.79 553.776 1694.89 548.449C1681.99 543.004 1671.75 534.599 1664.17 523.236C1656.71 511.872 1653.05 497.668 1653.16 480.622V213.932ZM2008.82 437.298V279.273H2073.1V552H2010.78V503.527H2007.93C2001.78 518.797 1991.66 531.285 1977.57 540.991C1963.6 550.698 1946.38 555.551 1925.9 555.551C1908.03 555.551 1892.23 551.586 1878.5 543.655C1864.88 535.606 1854.23 523.946 1846.54 508.676C1838.84 493.288 1834.99 474.704 1834.99 452.923V279.273H1899.27V442.98C1899.27 460.262 1904 473.993 1913.47 484.173C1922.94 494.353 1935.37 499.443 1950.76 499.443C1960.23 499.443 1969.4 497.135 1978.28 492.518C1987.16 487.902 1994.44 481.036 2000.12 471.922C2005.92 462.689 2008.82 451.148 2008.82 437.298ZM2250.4 556.794C2228.98 556.794 2209.8 551.29 2192.87 540.281C2175.95 529.273 2162.57 513.293 2152.74 492.341C2142.92 471.389 2138.01 445.939 2138.01 415.991C2138.01 385.688 2142.98 360.12 2152.92 339.287C2162.98 318.335 2176.54 302.533 2193.58 291.879C2210.63 281.107 2229.63 275.722 2250.58 275.722C2266.56 275.722 2279.7 278.444 2290 283.889C2300.29 289.216 2308.46 295.667 2314.5 303.243C2320.54 310.7 2325.21 317.743 2328.53 324.372H2331.19V188.364H2395.64V552H2332.43V509.031H2328.53C2325.21 515.66 2320.42 522.703 2314.14 530.161C2307.87 537.5 2299.58 543.773 2289.29 548.982C2278.99 554.19 2266.03 556.794 2250.4 556.794ZM2268.33 504.06C2281.95 504.06 2293.55 500.39 2303.14 493.051C2312.72 485.594 2320 475.236 2324.97 461.979C2329.95 448.721 2332.43 433.274 2332.43 415.636C2332.43 397.999 2329.95 382.67 2324.97 369.649C2320.12 356.628 2312.9 346.508 2303.31 339.287C2293.84 332.066 2282.18 328.456 2268.33 328.456C2254.01 328.456 2242.06 332.185 2232.47 339.642C2222.88 347.099 2215.66 357.398 2210.81 370.537C2205.95 383.676 2203.53 398.709 2203.53 415.636C2203.53 432.682 2205.95 447.893 2210.81 461.268C2215.78 474.526 2223.06 485.002 2232.65 492.696C2242.35 500.272 2254.25 504.06 2268.33 504.06ZM2474.13 552V279.273H2538.41V552H2474.13ZM2506.45 240.565C2496.27 240.565 2487.51 237.192 2480.17 230.445C2472.83 223.579 2469.16 215.352 2469.16 205.764C2469.16 196.058 2472.83 187.831 2480.17 181.084C2487.51 174.218 2496.27 170.786 2506.45 170.786C2516.75 170.786 2525.51 174.218 2532.73 181.084C2540.07 187.831 2543.74 196.058 2543.74 205.764C2543.74 215.352 2540.07 223.579 2532.73 230.445C2525.51 237.192 2516.75 240.565 2506.45 240.565ZM2733.47 557.327C2706.84 557.327 2683.75 551.467 2664.22 539.749C2644.69 528.03 2629.54 511.635 2618.77 490.565C2608.11 469.495 2602.79 444.874 2602.79 416.702C2602.79 388.529 2608.11 363.849 2618.77 342.661C2629.54 321.472 2644.69 305.018 2664.22 293.3C2683.75 281.581 2706.84 275.722 2733.47 275.722C2760.1 275.722 2783.19 281.581 2802.72 293.3C2822.25 305.018 2837.34 321.472 2847.99 342.661C2858.77 363.849 2864.15 388.529 2864.15 416.702C2864.15 444.874 2858.77 469.495 2847.99 490.565C2837.34 511.635 2822.25 528.03 2802.72 539.749C2783.19 551.467 2760.1 557.327 2733.47 557.327ZM2733.82 505.835C2748.27 505.835 2760.34 501.87 2770.05 493.939C2779.75 485.89 2786.97 475.118 2791.71 461.624C2796.56 448.129 2798.99 433.096 2798.99 416.524C2798.99 399.834 2796.56 384.741 2791.71 371.247C2786.97 357.634 2779.75 346.804 2770.05 338.754C2760.34 330.705 2748.27 326.68 2733.82 326.68C2719.03 326.68 2706.72 330.705 2696.89 338.754C2687.19 346.804 2679.91 357.634 2675.05 371.247C2670.32 384.741 2667.95 399.834 2667.95 416.524C2667.95 433.096 2670.32 448.129 2675.05 461.624C2679.91 475.118 2687.19 485.89 2696.89 493.939C2706.72 501.87 2719.03 505.835 2733.82 505.835Z" fill="#759B74"/>
</svg>
